<?xml version="1.0" encoding="UTF-8" standalone="no"?>
<svg xmlns:svg="http://www.w3.org/2000/svg" xmlns="http://www.w3.org/2000/svg"
	xmlns:xlink="http://www.w3.org/1999/xlink"
	width="570" height="370">
	<style type="text/css"><![CDATA[
    	.thick { stroke:black; stroke-width:70 }
    	.thin { stroke:#ffcccc; stroke-width:5 }
    	.xsd { fill:red }
    	.system { fill:lightblue }
    	.docfacto { fill: grey }
    	.toolkit { fill:green }
    	.arrow { marker-end: url(#mTriangle); fill:none; stroke:black; }
    	rect { stroke:#000000; stroke-width:2; fill:none; }
    	text { text-anchor:middle; }
  	]]></style>
	<defs>
		<!-- Arrow Marker -->
		<marker id="mTriangle" markerWidth="5" markerHeight="10" refX="5"
			refY="5" orient="auto">
			<path d="M 0 0 5 5 0 10 Z" style="fill:black;" />
		</marker>
  		
  		<filter id="closeDropShadow">
            <desc>Produces a 3D effect as if the item was close to the surface</desc>
            <feGaussianBlur in="SourceAlpha" stdDeviation="1" result="blur"/>
            	<feOffset in="blur" dx="3" dy="3" result="offsetBlur"/>
                	<feMerge>
                    	<feMergeNode in="offsetBlur"/>
                        <feMergeNode in="SourceGraphic"/>
                    </feMerge>
        </filter>
	</defs>
  	
  	<title>Docfacto Overview Diagram</title>

	<g id="Docfacto" transform="translate(10,10)">

		<rect height="100" width="500" />
		<g transform="translate(20,20)" id="XSD2DITA">
			<rect class="docfacto" filter="url(#closeDropShadow)" width="100" height="20" />
			<text y="15" x="50">XSD2DITA</text>
		</g>
		<g id="XSD2SVG" transform="translate(120,20)">
			<rect height="20" width="100" class="docfacto" filter="url(#closeDropShadow)" />
			<text x="50" y="15">XSD2SVG</text>
		</g>
		<g id="XSDTree" transform="translate(20,60)">
			<rect height="20" width="200" class="docfacto" filter="url(#closeDropShadow)" />
			<text x="100" y="15">XSDTree</text>
		</g>

		<g id="Adam" transform="translate(260,20)" >
			<rect height="20" width="100" class="docfacto" filter="url(#closeDropShadow)" />
			<text x="50" y="15">Adam</text>
		</g>
		
		<g id="Taglets" transform="translate(380,20)" >
			<rect height="20" width="100" class="docfacto" filter="url(#closeDropShadow)" />
			<text x="50" y="15">Taglets</text>
		</g>
		
		<g id="Javadoc2DITA" transform="translate(270,60)" >
			<rect height="20" width="200" class="docfacto" filter="url(#closeDropShadow)" />
			<text x="100" y="15" style="text-anchor:middle">Javadoc to DITA</text>
		</g>
	</g>

	<g id="jaxb" transform="translate(30,120)">
		<rect class="toolkit" width="200" height="20" filter="url(#closeDropShadow)" />
		<text x="100" y="15">JAXB Plugin</text>
		<line x1="100" y1="20" x2="100" y2="60" class="arrow" />
	</g>
	
	<g transform="translate(80,180)" id="ToolKit">
		<rect class="toolkit" width="100" height="40" filter="url(#closeDropShadow)" />
		<text y="18" x="50">DITA
		</text>
		<text y="30" x="50">TOOLKIT
		</text>
		<path d="M 40 42 40 75 h -70 v 25" class="arrow" />
		<path d="M 50 42 50 75 h 70 v 25" class="arrow" />
		<line x1="45" y1="40" x2="45" y2="100" class="arrow" />
		<g id="e-pub" transform="translate(10,100)">
			<rect width="70" height="20" class="toolkit" />
			<text y="15" x="35">ePub</text>
		</g>
		<g id="pdf" transform="translate(-65,100)">
			<rect width="70" height="20" class="toolkit" />
			<text y="15" x="35">PDF</text>
		</g>
		<g id="xhtml" transform="translate(85,100)">
			<rect width="70" height="20" class="toolkit" />
			<text y="15" x="35">XHTML</text>
		</g>
	</g>
	
	<g transform="translate(320,120)" id="JavaDoc">
		<rect class="toolkit" width="100" height="20" filter="url(#closeDropShadow)" />
		<text y="15" x="50">JavaDoc</text>
		<line x1="50" y1="20" x2="50" y2="160" class="arrow" />
		<g id="HTML" transform="translate(0,160)">
			<rect width="100" height="20" class="toolkit" />
			<text y="15" x="50">HTML</text>
		</g>
	</g>

	<g id="doc" transform="translate(10,320)">
		<rect class="system" width="410" height="20" filter="url(#closeDropShadow)" />
		<text x="205" y="15">User documentation and System documentation</text>
	</g>
</svg>
