<?xml version="1.0" encoding="UTF-8" standalone="no"?>
<svg xmlns:svg="http://www.w3.org/2000/svg" xmlns="http://www.w3.org/2000/svg"
	xmlns:xlink="http://www.w3.org/1999/xlink"
	width="680" height="500">
	<style type="text/css"><![CDATA[
    	.thick { stroke:black; stroke-width:70 }
    	.thin { stroke:#ffcccc; stroke-width:5 }
    	.xsd { fill:red }
    	.system { fill:lightblue }
    	.docfacto { fill: grey }
    	.toolkit { fill:green }
    	.arrow { marker-end: url(#mTriangle); fill:none; stroke:black; }
    	rect { stroke:#000000; stroke-width:2; fill:none; }
  	]]></style>
	<defs>
		<!-- Arrow Marker -->
		<marker id="mTriangle" markerWidth="5" markerHeight="10" refX="5"
			refY="5" orient="auto">
			<path d="M 0 0 5 5 0 10 Z" style="fill:black;" />
		</marker>
  		
  		<filter id="closeDropShadow">
            <desc>Produces a 3D effect as if the item was close to the surface</desc>
            <feGaussianBlur in="SourceAlpha" stdDeviation="1" result="blur"/>
            	<feOffset in="blur" dx="3" dy="3" result="offsetBlur"/>
                	<feMerge>
                    	<feMergeNode in="offsetBlur"/>
                        <feMergeNode in="SourceGraphic"/>
                    </feMerge>
        </filter>
	</defs>
  	
  	<title>Docfacto XSD Documentation Diagram</title>
	
	<g id="CmdLine" transform="translate(120,80)">
		<rect height="20" width="100" class="system" filter="url(#closeDropShadow)" />
		<text x="50" y="15" style="text-anchor:middle">Command line</text>
		<path d="M 50 22 50 50 h 170 v 50" class="arrow" />
	</g>
	
	<g id="Ant" transform="translate(300,80)">
		<rect height="20" width="100" class="system" filter="url(#closeDropShadow)" />
		<text x="50" y="15" style="text-anchor:middle">Ant</text>
		<path d="M 50 22 50 100" class="arrow" />
	</g>
	<g id="XJC" transform="translate(480,80)">
		<rect height="20" width="100" class="system" filter="url(#closeDropShadow)" />
		<text x="50" y="15" style="text-anchor:middle">XJC</text>
		<path d="M 50 22 50 50 h -170 v 50" class="arrow" />
	</g>

	<g id="Docfacto" transform="translate(220,180)">
		<rect height="100" width="300" />
		<g id="XSD2SVG" transform="translate(180,20)">
			<rect height="20" width="100" class="docfacto" filter="url(#closeDropShadow)" />
			<text x="50" y="15" style="text-anchor:middle">XSD2SVG</text>
		</g>
		<g id="XSDTree" transform="translate(80,60)">
			<rect height="20" width="100" class="docfacto" filter="url(#closeDropShadow)" />
			<text x="50" y="15" style="text-anchor:middle">XSDTree</text>
		</g>
		<g transform="translate(20,20)" id="XSD2DITA">
			<rect class="docfacto" filter="url(#closeDropShadow)" width="100" height="20" />
			<text style="text-anchor:middle" y="15" x="50">XSD2DITA</text>
		</g>
		<line x1="300" y1="50" x2="330" y2="50" class="arrow" />
		<line x1="50" y1="100" x2="50" y2="140" class="arrow" />
		<line x1="250" y1="100" x2="250" y2="140" class="arrow" />				
	</g>

	<g transform="translate(220,320)" id="ToolKit">
		<rect class="toolkit" width="100" height="40" filter="url(#closeDropShadow)" />
		<text style="text-anchor:middle" y="18" x="50">DITA
		</text>
		<text style="text-anchor:middle" y="30" x="50">TOOLKIT
		</text>
		<path d="M 40 42 40 75 h -70 v 25" class="arrow" />
		<path d="M 50 42 50 75 h 70 v 25" class="arrow" />
		<line x1="45" y1="40" x2="45" y2="140" class="arrow" />
	</g>
	<g transform="translate(420,320)" id="JavaDoc">
		<rect class="toolkit" width="100" height="40" filter="url(#closeDropShadow)" />
		<text style="text-anchor:middle" y="24" x="50">JavaDoc
		</text>
		<line x1="50" y1="40" x2="50" y2="100" class="arrow" />
	</g>
	<g id="PDF" transform="translate(140,420)">
		<rect height="20" width="100" class="toolkit" filter="url(#closeDropShadow)" />
		<text x="50" y="15" style="text-anchor:middle">PDF</text>
	</g>
	<g id="XHTML" transform="translate(290,420)">
		<rect width="100" height="20" class="toolkit" filter="url(#closeDropShadow)" />
		<text style="text-anchor:middle" y="15" x="50">XHTML
		</text>
	</g>
	<g id="others" transform="translate(215,460)">
		<rect width="100" height="20" class="toolkit" filter="url(#closeDropShadow)" />
		<text style="text-anchor:middle" y="15" x="50">...
		</text>
	</g>
	<g id="XSD" transform="translate(550,220)">
		<rect height="20" width="100" class="xsd" filter="url(#closeDropShadow)" />
		<text x="50" y="15" style="text-anchor:middle">XSD</text>
	</g>
	<g id="HTML" transform="translate(420,420)">
		<rect width="100" height="20" class="toolkit" filter="url(#closeDropShadow)" />
		<text style="text-anchor:middle" y="15" x="50">HTML
		</text>
	</g>
</svg>
